<svg xmlns="http://www.w3.org/2000/svg" width="170" height="170" viewBox="0 0 170 170">
    <g fill="none" fill-rule="nonzero">
        <path fill="#FFF" d="M0 0h169.575v169.575H0z"/>
        <path fill="#000" d="M10.175 10.175h5.935v5.935h-5.935zM16.11 10.175h5.935v5.935H16.11zM22.045 10.175h5.935v5.935h-5.935zM27.98 10.175h5.935v5.935H27.98zM33.915 10.175h5.935v5.935h-5.935zM39.85 10.175h5.935v5.935H39.85z"/>
        <path fill="#000" d="M45.785 10.175h5.935v5.935h-5.935zM63.591 10.175h5.935v5.935h-5.935zM69.526 10.175h5.935v5.935h-5.935zM81.396 10.175h5.935v5.935h-5.935zM93.266 10.175h5.935v5.935h-5.935z"/>
        <path fill="#000" d="M99.201 10.175h5.935v5.935h-5.935zM117.007 10.175h5.935v5.935h-5.935z"/>
        <path fill="#000" d="M122.942 10.175h5.935v5.935h-5.935zM128.877 10.175h5.935v5.935h-5.935zM134.812 10.175h5.935v5.935h-5.935zM140.747 10.175h5.935v5.935h-5.935z"/>
        <path fill="#000" d="M146.682 10.175h5.935v5.935h-5.935zM152.618 10.175h5.935v5.935h-5.935zM10.175 16.11h5.935v5.935h-5.935zM45.785 16.11h5.935v5.935h-5.935zM57.656 16.11h5.935v5.935h-5.935zM75.461 16.11h5.935v5.935h-5.935zM81.396 16.11h5.935v5.935h-5.935zM99.201 16.11h5.935v5.935h-5.935zM105.136 16.11h5.935v5.935h-5.935zM117.007 16.11h5.935v5.935h-5.935zM152.618 16.11h5.935v5.935h-5.935zM10.175 22.045h5.935v5.935h-5.935zM22.045 22.045h5.935v5.935h-5.935zM27.98 22.045h5.935v5.935H27.98zM33.915 22.045h5.935v5.935h-5.935zM45.785 22.045h5.935v5.935h-5.935zM57.656 22.045h5.935v5.935h-5.935z"/>
        <path fill="#000" d="M63.591 22.045h5.935v5.935h-5.935zM69.526 22.045h5.935v5.935h-5.935zM93.266 22.045h5.935v5.935h-5.935z"/>
        <path fill="#000" d="M99.201 22.045h5.935v5.935h-5.935zM117.007 22.045h5.935v5.935h-5.935zM128.877 22.045h5.935v5.935h-5.935zM134.812 22.045h5.935v5.935h-5.935zM140.747 22.045h5.935v5.935h-5.935zM152.618 22.045h5.935v5.935h-5.935zM10.175 27.98h5.935v5.935h-5.935zM22.045 27.98h5.935v5.935h-5.935zM27.98 27.98h5.935v5.935H27.98zM33.915 27.98h5.935v5.935h-5.935zM45.785 27.98h5.935v5.935h-5.935zM63.591 27.98h5.935v5.935h-5.935zM69.526 27.98h5.935v5.935h-5.935zM93.266 27.98h5.935v5.935h-5.935zM117.007 27.98h5.935v5.935h-5.935zM128.877 27.98h5.935v5.935h-5.935zM134.812 27.98h5.935v5.935h-5.935zM140.747 27.98h5.935v5.935h-5.935zM152.618 27.98h5.935v5.935h-5.935zM10.175 33.915h5.935v5.935h-5.935zM22.045 33.915h5.935v5.935h-5.935zM27.98 33.915h5.935v5.935H27.98zM33.915 33.915h5.935v5.935h-5.935zM45.785 33.915h5.935v5.935h-5.935zM57.656 33.915h5.935v5.935h-5.935zM75.461 33.915h5.935v5.935h-5.935zM81.396 33.915h5.935v5.935h-5.935zM87.331 33.915h5.935v5.935h-5.935zM99.201 33.915h5.935v5.935h-5.935zM117.007 33.915h5.935v5.935h-5.935zM128.877 33.915h5.935v5.935h-5.935zM134.812 33.915h5.935v5.935h-5.935zM140.747 33.915h5.935v5.935h-5.935zM152.618 33.915h5.935v5.935h-5.935zM10.175 39.85h5.935v5.935h-5.935zM45.785 39.85h5.935v5.935h-5.935zM57.656 39.85h5.935v5.935h-5.935z"/>
        <path fill="#000" d="M63.591 39.85h5.935v5.935h-5.935zM81.396 39.85h5.935v5.935h-5.935zM87.331 39.85h5.935v5.935h-5.935zM99.201 39.85h5.935v5.935h-5.935zM105.136 39.85h5.935v5.935h-5.935zM117.007 39.85h5.935v5.935h-5.935zM152.618 39.85h5.935v5.935h-5.935zM10.175 45.785h5.935v5.935h-5.935zM16.11 45.785h5.935v5.935H16.11zM22.045 45.785h5.935v5.935h-5.935zM27.98 45.785h5.935v5.935H27.98zM33.915 45.785h5.935v5.935h-5.935zM39.85 45.785h5.935v5.935H39.85z"/>
        <path fill="#000" d="M45.785 45.785h5.935v5.935h-5.935zM57.656 45.785h5.935v5.935h-5.935zM69.526 45.785h5.935v5.935h-5.935zM81.396 45.785h5.935v5.935h-5.935zM93.266 45.785h5.935v5.935h-5.935zM105.136 45.785h5.935v5.935h-5.935zM117.007 45.785h5.935v5.935h-5.935z"/>
        <path fill="#000" d="M122.942 45.785h5.935v5.935h-5.935zM128.877 45.785h5.935v5.935h-5.935zM134.812 45.785h5.935v5.935h-5.935zM140.747 45.785h5.935v5.935h-5.935z"/>
        <path fill="#000" d="M146.682 45.785h5.935v5.935h-5.935zM152.618 45.785h5.935v5.935h-5.935zM57.656 51.72h5.935v5.935h-5.935z"/>
        <path fill="#000" d="M63.591 51.72h5.935v5.935h-5.935zM93.266 51.72h5.935v5.935h-5.935z"/>
        <path fill="#000" d="M99.201 51.72h5.935v5.935h-5.935zM10.175 57.656h5.935v5.935h-5.935zM16.11 57.656h5.935v5.935H16.11zM27.98 57.656h5.935v5.935H27.98zM45.785 57.656h5.935v5.935h-5.935zM51.72 57.656h5.935v5.935H51.72zM69.526 57.656h5.935v5.935h-5.935zM81.396 57.656h5.935v5.935h-5.935zM87.331 57.656h5.935v5.935h-5.935zM99.201 57.656h5.935v5.935h-5.935zM105.136 57.656h5.935v5.935h-5.935zM117.007 57.656h5.935v5.935h-5.935z"/>
        <path fill="#000" d="M122.942 57.656h5.935v5.935h-5.935zM128.877 57.656h5.935v5.935h-5.935zM140.747 57.656h5.935v5.935h-5.935z"/>
        <path fill="#000" d="M146.682 57.656h5.935v5.935h-5.935zM22.045 63.591h5.935v5.935h-5.935zM39.85 63.591h5.935v5.935H39.85zM69.526 63.591h5.935v5.935h-5.935zM81.396 63.591h5.935v5.935h-5.935zM105.136 63.591h5.935v5.935h-5.935zM111.072 63.591h5.935v5.935h-5.935zM117.007 63.591h5.935v5.935h-5.935zM152.618 63.591h5.935v5.935h-5.935zM22.045 69.526h5.935v5.935h-5.935zM27.98 69.526h5.935v5.935H27.98zM33.915 69.526h5.935v5.935h-5.935zM39.85 69.526h5.935v5.935H39.85z"/>
        <path fill="#000" d="M45.785 69.526h5.935v5.935h-5.935zM57.656 69.526h5.935v5.935h-5.935z"/>
        <path fill="#000" d="M63.591 69.526h5.935v5.935h-5.935zM69.526 69.526h5.935v5.935h-5.935zM105.136 69.526h5.935v5.935h-5.935zM111.072 69.526h5.935v5.935h-5.935zM128.877 69.526h5.935v5.935h-5.935zM146.682 69.526h5.935v5.935h-5.935zM152.618 69.526h5.935v5.935h-5.935zM10.175 75.461h5.935v5.935h-5.935zM16.11 75.461h5.935v5.935H16.11zM22.045 75.461h5.935v5.935h-5.935zM51.72 75.461h5.935v5.935H51.72zM57.656 75.461h5.935v5.935h-5.935zM75.461 75.461h5.935v5.935h-5.935zM87.331 75.461h5.935v5.935h-5.935zM105.136 75.461h5.935v5.935h-5.935zM128.877 75.461h5.935v5.935h-5.935zM10.175 81.396h5.935v5.935h-5.935zM16.11 81.396h5.935v5.935H16.11zM22.045 81.396h5.935v5.935h-5.935zM27.98 81.396h5.935v5.935H27.98zM33.915 81.396h5.935v5.935h-5.935zM39.85 81.396h5.935v5.935H39.85z"/>
        <path fill="#000" d="M45.785 81.396h5.935v5.935h-5.935zM51.72 81.396h5.935v5.935H51.72zM81.396 81.396h5.935v5.935h-5.935zM87.331 81.396h5.935v5.935h-5.935zM99.201 81.396h5.935v5.935h-5.935zM105.136 81.396h5.935v5.935h-5.935zM111.072 81.396h5.935v5.935h-5.935zM117.007 81.396h5.935v5.935h-5.935zM134.812 81.396h5.935v5.935h-5.935zM146.682 81.396h5.935v5.935h-5.935zM152.618 81.396h5.935v5.935h-5.935zM16.11 87.331h5.935v5.935H16.11zM22.045 87.331h5.935v5.935h-5.935zM51.72 87.331h5.935v5.935H51.72zM69.526 87.331h5.935v5.935h-5.935zM81.396 87.331h5.935v5.935h-5.935zM87.331 87.331h5.935v5.935h-5.935zM111.072 87.331h5.935v5.935h-5.935zM117.007 87.331h5.935v5.935h-5.935z"/>
        <path fill="#000" d="M122.942 87.331h5.935v5.935h-5.935zM134.812 87.331h5.935v5.935h-5.935zM140.747 87.331h5.935v5.935h-5.935zM152.618 87.331h5.935v5.935h-5.935zM10.175 93.266h5.935v5.935h-5.935zM22.045 93.266h5.935v5.935h-5.935zM33.915 93.266h5.935v5.935h-5.935zM45.785 93.266h5.935v5.935h-5.935zM75.461 93.266h5.935v5.935h-5.935zM140.747 93.266h5.935v5.935h-5.935zM152.618 93.266h5.935v5.935h-5.935zM16.11 99.201h5.935v5.935H16.11zM27.98 99.201h5.935v5.935H27.98zM51.72 99.201h5.935v5.935H51.72zM57.656 99.201h5.935v5.935h-5.935zM69.526 99.201h5.935v5.935h-5.935z"/>
        <path fill="#000" d="M75.461 99.201h5.935v5.935h-5.935zM87.331 99.201h5.935v5.935h-5.935zM93.266 99.201h5.935v5.935h-5.935zM117.007 99.201h5.935v5.935h-5.935zM134.812 99.201h5.935v5.935h-5.935zM146.682 99.201h5.935v5.935h-5.935zM10.175 105.136h5.935v5.935h-5.935zM16.11 105.136h5.935v5.935H16.11zM45.785 105.136h5.935v5.935h-5.935zM63.591 105.136h5.935v5.935h-5.935zM81.396 105.136h5.935v5.935h-5.935zM105.136 105.136h5.935v5.935h-5.935zM111.072 105.136h5.935v5.935h-5.935zM117.007 105.136h5.935v5.935h-5.935z"/>
        <path fill="#000" d="M122.942 105.136h5.935v5.935h-5.935zM128.877 105.136h5.935v5.935h-5.935zM134.812 105.136h5.935v5.935h-5.935zM140.747 105.136h5.935v5.935h-5.935zM57.656 111.072h5.935v5.935h-5.935z"/>
        <path fill="#000" d="M63.591 111.072h5.935v5.935h-5.935zM75.461 111.072h5.935v5.935h-5.935zM81.396 111.072h5.935v5.935h-5.935zM93.266 111.072h5.935v5.935h-5.935z"/>
        <path fill="#000" d="M99.201 111.072h5.935v5.935h-5.935zM105.136 111.072h5.935v5.935h-5.935zM128.877 111.072h5.935v5.935h-5.935zM134.812 111.072h5.935v5.935h-5.935zM140.747 111.072h5.935v5.935h-5.935zM152.618 111.072h5.935v5.935h-5.935zM10.175 117.007h5.935v5.935h-5.935zM16.11 117.007h5.935v5.935H16.11zM22.045 117.007h5.935v5.935h-5.935zM27.98 117.007h5.935v5.935H27.98zM33.915 117.007h5.935v5.935h-5.935zM39.85 117.007h5.935v5.935H39.85z"/>
        <path fill="#000" d="M45.785 117.007h5.935v5.935h-5.935zM57.656 117.007h5.935v5.935h-5.935zM81.396 117.007h5.935v5.935h-5.935zM87.331 117.007h5.935v5.935h-5.935zM99.201 117.007h5.935v5.935h-5.935zM105.136 117.007h5.935v5.935h-5.935zM117.007 117.007h5.935v5.935h-5.935zM128.877 117.007h5.935v5.935h-5.935zM146.682 117.007h5.935v5.935h-5.935zM152.618 117.007h5.935v5.935h-5.935zM10.175 122.942h5.935v5.935h-5.935z"/>
        <path fill="#000" d="M45.785 122.942h5.935v5.935h-5.935zM63.591 122.942h5.935v5.935h-5.935zM69.526 122.942h5.935v5.935h-5.935zM75.461 122.942h5.935v5.935h-5.935zM105.136 122.942h5.935v5.935h-5.935zM128.877 122.942h5.935v5.935h-5.935zM134.812 122.942h5.935v5.935h-5.935zM140.747 122.942h5.935v5.935h-5.935zM10.175 128.877h5.935v5.935h-5.935zM22.045 128.877h5.935v5.935h-5.935zM27.98 128.877h5.935v5.935H27.98zM33.915 128.877h5.935v5.935h-5.935zM45.785 128.877h5.935v5.935h-5.935zM75.461 128.877h5.935v5.935h-5.935zM87.331 128.877h5.935v5.935h-5.935zM93.266 128.877h5.935v5.935h-5.935zM105.136 128.877h5.935v5.935h-5.935zM111.072 128.877h5.935v5.935h-5.935zM117.007 128.877h5.935v5.935h-5.935z"/>
        <path fill="#000" d="M122.942 128.877h5.935v5.935h-5.935zM128.877 128.877h5.935v5.935h-5.935zM10.175 134.812h5.935v5.935h-5.935zM22.045 134.812h5.935v5.935h-5.935zM27.98 134.812h5.935v5.935H27.98zM33.915 134.812h5.935v5.935h-5.935zM45.785 134.812h5.935v5.935h-5.935zM57.656 134.812h5.935v5.935h-5.935z"/>
        <path fill="#000" d="M63.591 134.812h5.935v5.935h-5.935zM69.526 134.812h5.935v5.935h-5.935zM81.396 134.812h5.935v5.935h-5.935zM87.331 134.812h5.935v5.935h-5.935zM99.201 134.812h5.935v5.935h-5.935zM105.136 134.812h5.935v5.935h-5.935zM122.942 134.812h5.935v5.935h-5.935zM128.877 134.812h5.935v5.935h-5.935zM140.747 134.812h5.935v5.935h-5.935zM10.175 140.747h5.935v5.935h-5.935zM22.045 140.747h5.935v5.935h-5.935zM27.98 140.747h5.935v5.935H27.98zM33.915 140.747h5.935v5.935h-5.935zM45.785 140.747h5.935v5.935h-5.935zM69.526 140.747h5.935v5.935h-5.935zM99.201 140.747h5.935v5.935h-5.935zM105.136 140.747h5.935v5.935h-5.935zM111.072 140.747h5.935v5.935h-5.935zM128.877 140.747h5.935v5.935h-5.935zM134.812 140.747h5.935v5.935h-5.935zM140.747 140.747h5.935v5.935h-5.935zM152.618 140.747h5.935v5.935h-5.935z"/>
        <path fill="#000" d="M10.175 146.682h5.935v5.935h-5.935zM45.785 146.682h5.935v5.935h-5.935zM57.656 146.682h5.935v5.935h-5.935z"/>
        <path fill="#000" d="M63.591 146.682h5.935v5.935h-5.935zM75.461 146.682h5.935v5.935h-5.935zM81.396 146.682h5.935v5.935h-5.935zM87.331 146.682h5.935v5.935h-5.935zM93.266 146.682h5.935v5.935h-5.935z"/>
        <path fill="#000" d="M99.201 146.682h5.935v5.935h-5.935zM105.136 146.682h5.935v5.935h-5.935zM134.812 146.682h5.935v5.935h-5.935zM10.175 152.618h5.935v5.935h-5.935zM16.11 152.618h5.935v5.935H16.11zM22.045 152.618h5.935v5.935h-5.935zM27.98 152.618h5.935v5.935H27.98zM33.915 152.618h5.935v5.935h-5.935zM39.85 152.618h5.935v5.935H39.85z"/>
        <path fill="#000" d="M45.785 152.618h5.935v5.935h-5.935zM57.656 152.618h5.935v5.935h-5.935zM75.461 152.618h5.935v5.935h-5.935zM81.396 152.618h5.935v5.935h-5.935zM87.331 152.618h5.935v5.935h-5.935zM105.136 152.618h5.935v5.935h-5.935zM111.072 152.618h5.935v5.935h-5.935zM122.942 152.618h5.935v5.935h-5.935zM146.682 152.618h5.935v5.935h-5.935zM152.618 152.618h5.935v5.935h-5.935z"/>
    </g>
</svg>
