<svg xmlns="http://www.w3.org/2000/svg" width="84" height="84" viewBox="0 0 84 84">
    <path fill="#FFF" fill-rule="evenodd" d="M81.875 2.258A7.184 7.184 0 0 1 84 7.344v10c0 1.96-.742 3.484-2.125 4.867-1.438 1.32-3.11 1.79-4.953 1.79h-10c-1.926 0-3.578-.47-4.957-1.731l-.102.05C60.602 20.945 60 19.27 60 17.345V7.469c0-1.926.602-3.774 1.863-5.149C63.305.875 64.961 0 66.922 0h10c1.879 0 3.57.875 4.953 2.258zM80 17.344v-10c0-.797-.328-1.633-.953-2.258C78.422 4.466 77.723 4 76.922 4h-10c-.883 0-1.547.465-2.172 1.086-.52.57-.75 1.465-.75 2.383v9.875c0 .89.215 1.422.75 2.04.617.538 1.285.616 2.172.616h10c.836 0 1.555-.097 2.187-.68.563-.562.891-1.09.891-1.976zM46.922 0c1.879 0 3.57.875 4.953 2.258A7.177 7.177 0 0 1 54 7.344v10c0 1.96-.742 3.484-2.125 4.867C50.438 23.53 48.765 24 46.922 24h-10c-1.926 0-3.578-.469-4.957-1.73l-.102.05C30.602 20.945 30 19.27 30 17.344V7.469c0-1.926.602-3.774 1.863-5.149C33.305.875 34.961 0 36.922 0h10zM50 17.344v-10c0-.797-.328-1.633-.953-2.258C48.422 4.466 47.723 4 46.922 4h-10c-.883 0-1.547.465-2.172 1.086-.52.57-.75 1.465-.75 2.383v9.875c0 .89.215 1.422.75 2.04.617.538 1.285.616 2.172.616h10c.836 0 1.555-.097 2.187-.68.563-.562.891-1.09.891-1.976zM76.922 30c1.879 0 3.57.875 4.953 2.258A7.177 7.177 0 0 1 84 37.344v10c0 1.96-.742 3.484-2.125 4.867C80.438 53.53 78.765 54 76.922 54h-10c-1.926 0-3.582-.469-4.957-1.73l-.102.05C60.602 50.945 60 49.27 60 47.344v-9.875c0-1.926.602-3.774 1.863-5.149 1.442-1.445 3.098-2.32 5.059-2.32h10zM80 47.344v-10c0-.797-.328-1.633-.953-2.258-.625-.62-1.324-1.086-2.125-1.086h-10c-.883 0-1.547.465-2.172 1.086-.52.57-.75 1.465-.75 2.383v9.875c0 .887.215 1.422.75 2.04.617.538 1.285.616 2.172.616h10c.836 0 1.555-.097 2.187-.675.563-.567.891-1.094.891-1.981zM46.922 30c1.879 0 3.57.875 4.953 2.258A7.177 7.177 0 0 1 54 37.344v10c0 1.96-.742 3.484-2.125 4.867C50.438 53.53 48.765 54 46.922 54h-10c-1.926 0-3.582-.469-4.957-1.73l-.102.05C30.602 50.945 30 49.27 30 47.344v-9.875c0-1.926.602-3.774 1.863-5.149 1.442-1.445 3.098-2.32 5.059-2.32h10zM50 47.344v-10c0-.797-.328-1.633-.953-2.258-.625-.62-1.324-1.086-2.125-1.086h-10c-.883 0-1.547.465-2.172 1.086-.52.57-.75 1.465-.75 2.383v9.875c0 .887.215 1.422.75 2.04.617.538 1.285.616 2.172.616h10c.836 0 1.555-.097 2.187-.675.563-.567.891-1.094.891-1.981zM76.922 60c1.879 0 3.57.875 4.953 2.258A7.177 7.177 0 0 1 84 67.344v10c0 1.96-.742 3.484-2.125 4.867C80.438 83.53 78.765 84 76.922 84h-10c-1.926 0-3.582-.469-4.957-1.73l-.102.05C60.602 80.945 60 79.27 60 77.344v-9.875c0-1.926.602-3.774 1.863-5.149 1.442-1.445 3.098-2.32 5.059-2.32h10zM80 77.344v-10c0-.797-.328-1.633-.953-2.258S77.723 64 76.922 64h-10c-.883 0-1.547.461-2.172 1.086-.52.57-.75 1.465-.75 2.383v9.875c0 .887.215 1.422.75 2.04.617.538 1.285.616 2.172.616h10c.836 0 1.555-.097 2.187-.675.563-.567.891-1.094.891-1.981zM46.922 60c1.879 0 3.57.875 4.953 2.258A7.177 7.177 0 0 1 54 67.344v10c0 1.96-.742 3.484-2.125 4.867C50.438 83.53 48.765 84 46.922 84h-10c-1.926 0-3.582-.469-4.957-1.73l-.102.05C30.602 80.945 30 79.27 30 77.344v-9.875c0-1.926.602-3.774 1.863-5.149 1.442-1.445 3.098-2.32 5.059-2.32h10zM50 77.344v-10c0-.797-.328-1.633-.953-2.258S47.723 64 46.922 64h-10c-.883 0-1.547.461-2.172 1.086-.52.57-.75 1.465-.75 2.383v9.875c0 .887.215 1.422.75 2.04.617.538 1.285.616 2.172.616h10c.836 0 1.555-.097 2.187-.675.563-.567.891-1.094.891-1.981zM16.922 0c1.879 0 3.57.875 4.953 2.258A7.16 7.16 0 0 1 24 7.344v10c0 1.96-.738 3.484-2.125 4.867C20.438 23.53 18.765 24 16.922 24h-10c-1.926 0-3.578-.469-4.957-1.73l-.102.05C.602 20.945 0 19.27 0 17.344V7.469C0 5.543.602 3.695 1.863 2.32 3.305.875 4.961 0 6.922 0h10zM20 17.344v-10c0-.797-.328-1.633-.953-2.258C18.422 4.466 17.723 4 16.922 4h-10c-.883 0-1.547.465-2.172 1.086C4.23 5.656 4 6.551 4 7.47v9.875c0 .89.215 1.422.75 2.04.617.538 1.285.616 2.172.616h10c.836 0 1.555-.097 2.187-.68.563-.562.891-1.09.891-1.976zM16.922 30c1.879 0 3.57.875 4.953 2.258A7.16 7.16 0 0 1 24 37.344v10c0 1.96-.738 3.484-2.125 4.867C20.438 53.53 18.765 54 16.922 54h-10c-1.926 0-3.582-.469-4.957-1.73l-.102.05C.602 50.945 0 49.27 0 47.344v-9.875c0-1.926.602-3.774 1.863-5.149C3.305 30.875 4.961 30 6.922 30h10zM20 47.344v-10c0-.797-.328-1.633-.953-2.258-.625-.62-1.324-1.086-2.125-1.086h-10c-.883 0-1.547.465-2.172 1.086-.52.57-.75 1.465-.75 2.383v9.875c0 .887.215 1.422.75 2.04.617.538 1.285.616 2.172.616h10c.836 0 1.555-.097 2.187-.675.563-.567.891-1.094.891-1.981zM16.922 60c1.879 0 3.57.875 4.953 2.258A7.16 7.16 0 0 1 24 67.344v10c0 1.96-.738 3.484-2.125 4.867C20.438 83.53 18.765 84 16.922 84h-10c-1.926 0-3.582-.469-4.957-1.73l-.102.05C.602 80.945 0 79.27 0 77.344v-9.875c0-1.926.602-3.774 1.863-5.149C3.305 60.875 4.961 60 6.922 60h10zM20 77.344v-10c0-.797-.328-1.633-.953-2.258S17.723 64 16.922 64h-10c-.883 0-1.547.461-2.172 1.086-.52.57-.75 1.465-.75 2.383v9.875c0 .887.215 1.422.75 2.04.617.538 1.285.616 2.172.616h10c.836 0 1.555-.097 2.187-.675.563-.567.891-1.094.891-1.981z"/>
</svg>
