<?xml version="1.0" encoding="UTF-8" standalone="no"?>
<svg width="100px" height="100px" viewBox="0 0 100 100" version="1.1" xmlns="http://www.w3.org/2000/svg" xmlns:xlink="http://www.w3.org/1999/xlink">
    <!-- Generator: sketchtool 50.2 (55047) - http://www.bohemiancoding.com/sketch -->
    <title>1D32F27B-3C0E-42EE-9ABA-3468F1D622F9</title>
    <desc>Created with sketchtool.</desc>
    <defs></defs>
    <g id="Darwin-Digital-Display-UI" stroke="none" stroke-width="1" fill="none" fill-rule="evenodd">
        <g id="Touchscreen-Icons" transform="translate(-2929.000000, -1058.000000)" fill="#FFFFFF">
            <g id="Icon/Play" transform="translate(2929.000000, 1058.000000)">
                <g id="Play">
                    <path d="M50,3 C24.0426168,3 3,24.0426168 3,50 C3,75.9573832 24.0426168,97 50,97 C75.9573832,97 97,75.9573832 97,50 C97,24.0426168 75.9573832,3 50,3 Z M50,0 C77.6142375,-5.07265313e-15 100,22.3857625 100,50 C100,77.6142375 77.6142375,100 50,100 C22.3857625,100 3.38176876e-15,77.6142375 0,50 C-3.38176876e-15,22.3857625 22.3857625,5.07265313e-15 50,0 Z M39.0635666,30.0013256 L39.0584159,30.0013256 C38.5129627,30.0013256 37.9880862,30.2124747 37.6021088,30.5895339 C37.216171,30.9716253 37.00005,31.4793946 37.00005,32.0173574 L37.00005,67.9883697 L37.00005,67.9833375 C36.9949124,68.7072881 37.3859878,69.3708772 38.0240624,69.7329169 C38.662137,70.0898599 39.4494123,70.0898599 40.0875264,69.7278975 L71.9708368,51.7443219 L71.9708368,51.7392896 C72.6089246,51.3823466 73,50.7187188 73,49.999749 C73,49.2807792 72.6089114,48.6172286 71.9708368,48.2602084 L40.0875264,30.2714847 C39.7736332,30.0955229 39.4237112,30 39.0583632,30 L39.0635666,30.0013256 Z M40.2934117,34.1024252 L68.4723934,49.9997361 L40.2934117,65.8970471 L40.2934117,34.1037122 L40.2934117,34.1024252 Z" fill-rule="nonzero"></path>
                </g>
            </g>
        </g>
    </g>
</svg>