<svg xmlns="http://www.w3.org/2000/svg" width="98" height="98" viewBox="0 0 98 98">
    <path fill="#FFF" fill-rule="nonzero" stroke="#FFF" stroke-width="1.582" d="M90.415 48.15C90.406 28.295 76.283 11.224 56.71 7.41 37.138 3.595 17.59 14.102 10.06 32.486 2.528 50.87 9.12 71.99 25.792 82.886L13.053 93.928a1.42 1.42 0 0 0-.11 1.98 1.436 1.436 0 0 0 1.985.172l13.426-11.67a41.538 41.538 0 0 0 14.871 4.916h.344c.696.086 1.393.152 2.09.2h.529c.816 0 1.646.085 2.476.085.83 0 1.66 0 2.476-.085h.53a37.066 37.066 0 0 0 2.09-.2h.343a41.538 41.538 0 0 0 14.914-4.915L82.443 96.08c.6.486 1.479.41 1.985-.171a1.42 1.42 0 0 0-.11-1.98L71.594 82.885c11.753-7.682 18.828-20.74 18.821-34.737zM68.574 81.375h-.13a39.049 39.049 0 0 1-14.498 5.044h-.23c-.7.085-1.43.156-2.118.213h-.5c-.802 0-1.604.086-2.405.086-.802 0-1.603 0-2.405-.086h-.5c-.702 0-1.432-.128-2.12-.213h-.228a39.05 39.05 0 0 1-14.5-4.959h-.143C13.77 72.553 6.57 54.748 11.211 37.961 15.85 21.173 31.187 9.54 48.678 9.54c17.492 0 32.827 11.632 37.468 28.42 4.64 16.787-2.558 34.592-17.587 43.5l.015-.085zM48.693 24.74c-.79 0-1.432.638-1.432 1.425v21.372L35.94 58.664a1.421 1.421 0 0 0 .616 2.392 1.437 1.437 0 0 0 1.387-.354l11.752-11.498c.273-.267.427-.631.429-1.012V26.165c0-.787-.64-1.425-1.431-1.425zM29.985 3.696a1.422 1.422 0 0 0 .673-1.82 1.433 1.433 0 0 0-1.775-.802C16.237 6.395 6.24 16.511 1.101 29.185a1.42 1.42 0 0 0 .207 1.411 1.436 1.436 0 0 0 2.456-.356C8.612 18.273 18.048 8.722 29.985 3.696zm66.299 25.49C91.145 16.51 81.148 6.395 68.502 1.073a1.433 1.433 0 0 0-1.775.801c-.289.689.004 1.483.673 1.82C79.343 8.72 88.784 18.272 93.636 30.24a1.435 1.435 0 0 0 1.86.798 1.424 1.424 0 0 0 .802-1.853h-.014z"/>
</svg>
