<svg xmlns="http://www.w3.org/2000/svg" width="108" height="104" viewBox="0 0 108 104">
    <g fill="#0affbe" fill-rule="nonzero">
        <path d="M.047 47.475h20.247v4.511H.047zM6.405 75.363l17.617-10.125 2.258 3.928L8.663 79.291zM28.99 97.742l-3.899-2.256 10.124-17.578 3.896 2.252zM51.789 83.568h4.499v20.298h-4.499zM79.088 97.742L68.967 80.16l3.895-2.252 10.124 17.578zM82.114 68.597l2.252-3.9 17.583 10.152-2.252 3.9zM87.785 47.475h20.247v4.511H87.785zM82.135 30.843L99.67 20.718l2.257 3.91-17.536 10.125zM6.129 24.61l2.251-3.9L25.963 30.86l-2.252 3.9zM54.04 74.545c-13.88 0-24.75-10.902-24.75-24.816a31.428 31.428 0 0 1 6.938-19.463c.452-.55.89-1.064 1.312-1.555 1.87-2.18 3-3.5 3-6.04v-4.52h4.498v4.512c0 4.22-1.986 6.532-4.088 8.985-.395.453-.81.937-1.23 1.46-3.715 4.57-5.932 10.784-5.932 16.62 0 11.387 8.896 20.306 20.252 20.306v4.51z"/>
        <path d="M54.04 74.545v-4.51c11.353 0 20.245-8.92 20.245-20.306 0-5.832-2.213-12.047-5.928-16.62-.422-.524-.835-1.001-1.23-1.46-2.106-2.454-4.09-4.767-4.09-8.986v-4.512h4.5v4.512c0 2.542 1.13 3.861 3 6.04.42.492.863 1.006 1.312 1.556a31.44 31.44 0 0 1 6.939 19.463c0 13.914-10.869 24.816-24.748 24.816"/>
        <path d="M69.788 20.407H54.04v-4.51h11.25V4.617H42.788v11.28h4.503v4.51h-9.002V.102h31.5z"/>
    </g>
</svg>
