<svg xmlns="http://www.w3.org/2000/svg" width="92" height="95" viewBox="0 0 92 95">
    <g fill="#1D1D1B" fill-rule="nonzero">
        <path d="M44.9 94c-5.985 0-11.237-4.845-11.237-10.372.006-4.395 3.573-7.955 7.975-7.961V79.8a3.833 3.833 0 0 0-3.834 3.827c0 3.204 3.451 6.236 7.096 6.236 5.111 0 8.822-4.056 8.822-9.644-.011-7.976-6.486-14.438-14.476-14.446H.05v-4.14h39.196c10.278.01 18.607 8.324 18.617 18.584 0 7.852-5.572 13.778-12.958 13.778M39.246 32.427H.048v-4.134h39.198c7.989-.008 14.463-6.471 14.471-14.446-.006-5.325-4.329-9.64-9.663-9.644-3.45.005-6.245 2.797-6.247 6.24a3.83 3.83 0 0 0 3.829 3.82v4.135c-4.4-.006-7.966-3.566-7.97-7.959C33.673 4.714 38.32.074 44.056.067c7.62.008 13.795 6.172 13.804 13.778-.008 10.26-8.338 18.576-18.616 18.584"/>
        <path d="M73.19 49.189H.049v-4.134H73.19c7.992-.005 14.471-6.47 14.48-14.448-.005-5.328-4.333-9.645-9.67-9.646-3.451.002-6.248 2.794-6.252 6.238a3.837 3.837 0 0 0 3.834 3.827v4.13c-4.401-.004-7.969-3.563-7.975-7.957.01-5.724 4.656-10.362 10.39-10.372 7.62.01 13.794 6.174 13.803 13.78-.01 10.26-8.339 18.575-18.617 18.584"/>
    </g>
</svg>
