<svg xmlns="http://www.w3.org/2000/svg" width="59" height="74" viewBox="0 0 59 74">
    <g fill="#FFF" fill-rule="nonzero">
        <path d="M29.4 0C13.188 0 0 12.61 0 28.11c0 11.518 7.416 21.88 18.568 26.108v6.441c0 .818.693 1.48 1.548 1.48h18.568c.856 0 1.547-.662 1.547-1.48v-6.441C51.383 49.989 58.8 39.628 58.8 28.11 58.8 12.61 45.611 0 29.4 0zm8.767 51.8a1.482 1.482 0 0 0-1.03 1.394v5.986H21.662v-5.986c0-.628-.413-1.187-1.03-1.394C10.142 48.248 3.094 38.73 3.094 28.11c0-13.868 11.8-25.151 26.305-25.151 14.505 0 26.305 11.283 26.305 25.151 0 10.619-7.048 20.138-17.538 23.69zM38.684 68.057H20.116c-.855 0-1.548.661-1.548 1.48 0 .817.693 1.479 1.548 1.479h7.736v1.48c0 .817.694 1.479 1.548 1.479.854 0 1.547-.662 1.547-1.48v-1.48h7.737c.856 0 1.547-.66 1.547-1.479 0-.818-.691-1.48-1.547-1.48z"/>
        <path d="M41.087 26.786l-5.498 2.63-5.498-2.628a1.61 1.61 0 0 0-1.384 0l-5.497 2.627-5.497-2.627c-.768-.367-1.695-.068-2.077.661-.382.73-.073 1.62.692 1.986l6.19 2.959a1.62 1.62 0 0 0 1.384 0l5.498-2.63 5.497 2.628a1.61 1.61 0 0 0 1.385 0l6.19-2.959c.764-.365 1.074-1.255.691-1.985-.385-.731-1.313-1.027-2.076-.662z"/>
    </g>
</svg>
