<svg xmlns="http://www.w3.org/2000/svg" width="95" height="74" viewBox="0 0 95 74">
    <path fill="#FFF" fill-rule="evenodd" stroke="#FFF" d="M91.683 47.724l-.896.004-87.264.309v-9.843c0-2.351 1.889-4.192 4.302-4.195l3.937.022c.162.034.332.034.49 0l.195-.022H82.92l.096.022c.159.035.329.035.491 0l.192-.022h3.677c2.415 0 4.307 1.843 4.307 4.195v9.53zm-.004 14.177H3.518V50.586l.897-.004 87.264-.309v11.628zm-6.118 8.701h6.118v-6.149h-6.118v6.149zm-82.043 0h6.118v-6.149H3.518v6.149zm36.346-50.28v7.341c0 1.055-.301 2.113-.805 2.831-.156.225-.642.926-1.444.926H27.359c-.712 0-1.166-.529-1.445-.926-.504-.718-.805-1.776-.805-2.831v-7.341c0-1.055.301-2.113.805-2.83.156-.226.642-.927 1.445-.927h10.256c.712 0 1.165.529 1.444.927.504.717.805 1.775.805 2.83zm30.228 0v7.341c0 1.055-.301 2.113-.805 2.831-.156.225-.642.926-1.445.926H57.586c-.712 0-1.165-.529-1.445-.926-.503-.718-.804-1.776-.804-2.831v-7.341c0-1.055.301-2.113.804-2.83.157-.226.644-.927 1.445-.927h10.256c.712 0 1.166.529 1.445.927.504.717.805 1.775.805 2.83zM13.23 7.845c0-2.409 1.848-4.297 4.206-4.297h60.32c2.359 0 4.206 1.888 4.206 4.297v23.601H71.787l.392-1.184a8.412 8.412 0 0 0 .427-2.607v-7.342c0-1.621-.434-3.1-1.255-4.276-.888-1.27-2.201-2.029-3.513-2.029H57.582c-1.315 0-2.628.758-3.512 2.029-.822 1.176-1.256 2.655-1.256 4.276v7.342c0 .857.148 1.759.428 2.609l.388 1.182H41.559l.392-1.184a8.412 8.412 0 0 0 .427-2.607v-7.342c0-1.621-.434-3.1-1.255-4.276-.888-1.27-2.201-2.029-3.513-2.029H27.354c-1.315 0-2.628.758-3.511 2.028-.822 1.177-1.256 2.656-1.256 4.277v7.342c0 .857.148 1.759.427 2.609l.389 1.182H13.23V7.845zm80.212 65.236a1.32 1.32 0 0 0 .089-.047l.185-.108a1.2 1.2 0 0 0 .267-.316c.149-.234.216-.472.214-.722V38.197c0-3.721-3.062-6.747-6.826-6.747h-2.89V7.849C84.481 4.073 81.464 1 77.756 1H17.44c-3.708 0-6.724 3.073-6.724 6.85v23.6h-2.89C4.062 31.45 1 34.476 1 38.197v33.681c0 .168.035.343.101.505.055.137.121.251.201.349l-.001-.002c.002 0 .022.02.044.041l.24.217c.293.191.627.252.953.183l.193-.021h8.164c.695 0 1.26-.571 1.26-1.272v-7.425h70.887l.004 7.425c0 .701.565 1.272 1.26 1.272l8.394.015c.202.037.411.023.604-.039l.138-.045z"/>
</svg>
