<svg xmlns="http://www.w3.org/2000/svg" width="100" height="110" viewBox="0 0 100 110">
    <path fill="#FFF" fill-rule="evenodd" d="M49.812 0c2.839 0 5.543.903 8.017 2.406 1.261-.73 2.704-1.184 4.258-1.184 4.718 0 8.592 3.858 8.592 8.556a8.556 8.556 0 0 1-2.033 5.538 57.597 57.597 0 0 1 1.842 4.01c3.035-.4 5.945-.587 8.669-.496 8.227.267 15.152 2.912 18.488 8.67 4.104 7.075 1.496 16.314-4.833 25.285A60.093 60.093 0 0 1 91.162 55c.576.74 1.127 1.475 1.65 2.215 6.329 8.971 8.937 18.209 4.833 25.285a13.94 13.94 0 0 1-1.496 2.063c.196.711.307 1.446.307 2.215 0 4.698-3.875 8.556-8.593 8.556-3.15 0-5.945-1.7-7.441-4.24-3.074.2-6.396.038-9.897-.42-.36.874-.729 1.695-1.112 2.52C64.767 103.135 58.016 110 49.81 110c-8.204 0-14.955-6.865-19.601-16.805a61.446 61.446 0 0 1-1.113-2.521c-2.838.377-5.566.554-8.132.496-1.27 3.151-4.382 5.386-7.978 5.386-4.718 0-8.593-3.858-8.593-8.556 0-.74.125-1.451.307-2.139a14.445 14.445 0 0 1-2.723-3.36C-2.127 75.424.482 66.185 6.81 57.214A60.069 60.069 0 0 1 8.461 55a60.136 60.136 0 0 1-1.65-2.215C.481 43.814-2.126 34.576 1.978 27.5c3.591-6.197 11.292-8.766 20.407-8.67 2.138.024 4.396.19 6.712.496.355-.86.734-1.704 1.113-2.52C34.856 6.865 41.607 0 49.81 0h.001zm0 4.889c-5.35 0-10.908 4.898-15.152 13.98-.201.43-.378.888-.575 1.336 5.015 1.041 10.314 2.674 15.726 4.89 5.404-2.22 10.678-3.844 15.689-4.89-.331-.759-.648-1.503-.998-2.215a8.423 8.423 0 0 1-2.416.344c-4.718 0-8.593-3.858-8.593-8.555 0-1.337.326-2.574.883-3.705C52.86 5.305 51.35 4.89 49.81 4.89l.001-.001zm12.275 1.222c-2.062 0-3.682 1.614-3.682 3.667s1.62 3.666 3.682 3.666 3.682-1.613 3.682-3.666-1.62-3.667-3.682-3.667zm16.916 17.607c-2.09-.067-4.359.067-6.751.344 1.596 4.85 2.829 10.222 3.605 16.004 4.623 3.557 8.674 7.319 12.083 11.114.302-.406.6-.821.883-1.222 5.777-8.193 7.278-15.397 4.603-20.014-2.172-3.743-7.15-5.987-14.423-6.225zm-56.695 0c-8.17-.086-13.77 2.192-16.11 6.226-2.676 4.617-1.175 11.821 4.603 20.014.283.4.58.816.882 1.222 3.409-3.796 7.46-7.558 12.083-11.115.777-5.772 2.014-11.157 3.606-16.003-1.76-.206-3.457-.33-5.064-.344zm44.995 1.108c-3.534.702-7.265 1.776-11.124 3.132 2.368 1.15 4.76 2.377 7.134 3.743a117.669 117.669 0 0 1 6.866 4.278c-.752-4.016-1.716-7.749-2.876-11.153zm-35.022.038c-1.15 3.39-2.095 7.128-2.838 11.115a115.939 115.939 0 0 1 14-8.059 81.958 81.958 0 0 0-11.162-3.056zm17.492 5.538a107.051 107.051 0 0 0-11.009 5.538 109.459 109.459 0 0 0-10.318 6.76 107.005 107.005 0 0 0-.73 12.298c0 4.245.279 8.36.73 12.298a109.252 109.252 0 0 0 10.318 6.722 107.508 107.508 0 0 0 11.047 5.538 109.03 109.03 0 0 0 11.048-5.538c3.687-2.12 7.12-4.368 10.318-6.722.45-3.939.729-8.054.729-12.298 0-4.234-.235-8.33-.69-12.26a108.787 108.787 0 0 0-10.358-6.798 108.03 108.03 0 0 0-11.085-5.538zm.038 14.82c5.394 0 9.82 4.406 9.82 9.777 0 5.371-4.426 9.778-9.82 9.778s-9.82-4.407-9.82-9.778c0-5.37 4.426-9.778 9.82-9.778zm26.736 1.718c.182 2.635.268 5.314.268 8.06 0 2.725-.086 5.399-.268 8.02 3.102-2.635 5.874-5.333 8.247-8.02a81.06 81.06 0 0 0-8.247-8.06zm-53.471.038c-3.102 2.636-5.874 5.333-8.247 8.021 2.373 2.688 5.144 5.385 8.247 8.02a115.68 115.68 0 0 1-.269-8.02c0-2.726.087-5.4.269-8.02zM49.81 50.11c-2.742 0-4.91 2.158-4.91 4.89 0 2.73 2.168 4.888 4.91 4.888 2.743 0 4.91-2.158 4.91-4.889 0-2.73-2.167-4.889-4.91-4.889zm38.167 8.708c-3.413 3.8-7.49 7.558-12.12 11.115-.773 5.758-2.02 11.129-3.607 15.964 2.518.296 4.877.43 7.058.344.293-4.44 4.028-8.02 8.554-8.02 2.062 0 3.96.763 5.447 1.986.034-.053.087-.1.115-.153 2.676-4.617 1.175-11.86-4.603-20.052-.278-.396-.546-.787-.844-1.184zm-76.334 0c-.297.397-.566.788-.844 1.184-5.777 8.193-7.278 15.436-4.603 20.052.317.55.72 1.05 1.151 1.528 1.515-1.318 3.486-2.14 5.639-2.14 4.138 0 7.61 2.975 8.4 6.876 1.875.024 3.88-.134 5.984-.382-1.592-4.846-2.833-10.231-3.605-16.004-4.632-3.557-8.708-7.314-12.122-11.114zM70.18 74.02c-2.191 1.47-4.493 2.874-6.866 4.24a118.602 118.602 0 0 1-7.135 3.781c3.87 1.356 7.619 2.392 11.162 3.094 1.146-3.385 2.1-7.128 2.839-11.115zm-40.738 0c.744 4.001 1.688 7.759 2.84 11.153a81.451 81.451 0 0 0 11.2-3.094 120.24 120.24 0 0 1-7.173-3.82c-2.374-1.365-4.675-2.768-6.867-4.239zm58.421 9.09c-2.062 0-3.682 1.614-3.682 3.667s1.62 3.667 3.682 3.667 3.682-1.614 3.682-3.667-1.62-3.667-3.682-3.667zm-74.876 1.223c-2.062 0-3.682 1.613-3.682 3.666s1.62 3.667 3.682 3.667 3.683-1.614 3.683-3.667-1.621-3.666-3.683-3.666zm36.786.573c-5.403 2.215-10.678 3.886-15.688 4.927.192.444.374.868.575 1.298 4.244 9.08 9.8 13.98 15.152 13.98 5.352 0 10.908-4.899 15.152-13.98.202-.43.384-.854.576-1.298-5.03-1.046-10.338-2.698-15.766-4.927z"/>
</svg>
