<?xml version="1.0" encoding="UTF-8" standalone="no"?>
<svg width="100px" height="100px" viewBox="0 0 100 100" version="1.1" xmlns="http://www.w3.org/2000/svg" xmlns:xlink="http://www.w3.org/1999/xlink">
    <!-- Generator: sketchtool 50.2 (55047) - http://www.bohemiancoding.com/sketch -->
    <title>DDEE6D39-FD7C-4036-9A47-AA11C2661F04</title>
    <desc>Created with sketchtool.</desc>
    <defs></defs>
    <g id="Symbols" stroke="none" stroke-width="1" fill="none" fill-rule="evenodd">
        <g id="Icon/Pause" fill="#FFFFFF" fill-rule="nonzero">
            <g id="Pause">
                <path d="M50,3 C24.0426168,3 3,24.0426168 3,50 C3,75.9573832 24.0426168,97 50,97 C75.9573832,97 97,75.9573832 97,50 C97,24.0426168 75.9573832,3 50,3 Z M50,0 C77.6142375,-5.07265313e-15 100,22.3857625 100,50 C100,77.6142375 77.6142375,100 50,100 C22.3857625,100 3.38176876e-15,77.6142375 0,50 C-3.38176876e-15,22.3857625 22.3857625,5.07265313e-15 50,0 Z M59,30 C57.8954305,30 57,30.8954305 57,32 L57,68 C57,69.1045695 57.8954305,70 59,70 C60.1045695,70 61,69.1045695 61,68 L61,32 C61,30.8954305 60.1045695,30 59,30 Z M41,30 C39.8954305,30 39,30.8954305 39,32 L39,68 C39,69.1045695 39.8954305,70 41,70 C42.1045695,70 43,69.1045695 43,68 L43,32 C43,30.8954305 42.1045695,30 41,30 Z"></path>
            </g>
        </g>
    </g>
</svg>