<svg xmlns="http://www.w3.org/2000/svg" width="114" height="114" viewBox="0 0 114 114">
    <g fill="#0affbe" fill-rule="nonzero" stroke="#0affbe" stroke-width="1.06">
        <path d="M57.192 86.017c-15.857 0-28.757-12.926-28.757-28.81 0-15.885 12.898-28.81 28.757-28.81 15.86 0 28.758 12.92 28.758 28.81 0 15.889-12.902 28.81-28.758 28.81m0-54.021c-13.898 0-25.165 11.287-25.165 25.21 0 13.924 11.267 25.212 25.165 25.212 13.899 0 25.165-11.288 25.165-25.211-.014-13.918-11.273-25.197-25.165-25.211M57.192 22.231a1.792 1.792 0 0 1-1.795-1.796V2.879a1.8 1.8 0 0 1 .898-1.558 1.792 1.792 0 0 1 1.795 0 1.8 1.8 0 0 1 .898 1.558v17.556a1.798 1.798 0 0 1-1.796 1.796M57.192 113.335a1.794 1.794 0 0 1-1.795-1.798V93.98c0-.993.804-1.799 1.795-1.799.992 0 1.796.806 1.796 1.799v17.556c0 .993-.804 1.798-1.796 1.798M83.148 33.002a1.771 1.771 0 0 1-1.267-.527 1.796 1.796 0 0 1 0-2.541l12.388-12.415a1.795 1.795 0 0 1 2.508.033c.688.69.703 1.804.033 2.512L84.415 32.485a1.773 1.773 0 0 1-1.267.527M18.846 97.424a1.773 1.773 0 0 1-1.267-.53 1.798 1.798 0 0 1 0-2.543l12.384-12.413a1.795 1.795 0 0 1 3.044.789 1.803 1.803 0 0 1-.503 1.757l-12.39 12.413a1.78 1.78 0 0 1-1.268.529M111.423 59.007H93.899a1.799 1.799 0 0 1-1.797-1.8c0-.995.805-1.8 1.797-1.8h17.524c.993 0 1.797.805 1.797 1.8 0 .994-.804 1.8-1.797 1.8M2.962 59.007a1.799 1.799 0 0 1-1.798-1.8c0-.995.805-1.8 1.798-1.8h17.521c.993 0 1.798.805 1.798 1.8 0 .994-.805 1.8-1.798 1.8H2.962zM95.536 97.424c-.475 0-.932-.19-1.267-.53l-12.392-12.41a1.803 1.803 0 0 1 .787-3.05 1.795 1.795 0 0 1 1.754.504l12.388 12.418a1.801 1.801 0 0 1-1.27 3.068M31.237 33.002a1.785 1.785 0 0 1-1.274-.517l-12.392-12.41a1.803 1.803 0 0 1 .033-2.513c.689-.69 1.8-.705 2.507-.033L32.5 29.944a1.796 1.796 0 0 1 0 2.541 1.771 1.771 0 0 1-1.268.527"/>
    </g>
</svg>
