<svg xmlns="http://www.w3.org/2000/svg" width="61" height="68" viewBox="0 0 61 68">
    <path fill="#FFF" fill-rule="nonzero" d="M0 57.403C0 63.23 4.953 68 11.008 68c6.054 0 11.007-4.769 11.007-10.597 0-1.06-.183-2.032-.459-2.915V12.717l35.775-9.008v28.878c-2.018-1.855-4.77-2.914-7.797-2.914-6.33 0-11.466 4.945-11.466 11.039 0 6.093 5.045 10.95 11.466 10.95 6.42 0 11.466-4.945 11.466-11.039V3.091C61 1.413 59.532 0 57.79 0h-.184L20.823 9.184a3.072 3.072 0 0 0-2.936 3.091v36.826c-1.834-1.413-4.311-2.296-6.88-2.296C4.863 46.805 0 51.574 0 57.403zm49.534-9.273c-4.311 0-7.797-3.356-7.797-7.507 0-4.15 3.486-7.506 7.797-7.506s7.797 3.356 7.797 7.506c0 4.151-3.578 7.507-7.797 7.507zm-38.526 2.208c4.036 0 7.338 3.179 7.338 7.065 0 3.885-3.302 7.065-7.338 7.065-4.037 0-7.339-3.18-7.339-7.065 0-3.886 3.302-7.065 7.339-7.065z"/>
</svg>
