<svg xmlns="http://www.w3.org/2000/svg" width="52" height="77" viewBox="0 0 52 77">
    <g fill="#FFF" fill-rule="nonzero" stroke="#FFF">
        <path d="M26 75.915c-13.723 0-24.884-11.14-24.884-24.838C1.116 37.829 23.974 3.1 24.948 1.63c.467-.705 1.64-.705 2.104 0 .974 1.471 23.832 36.2 23.832 49.447 0 13.698-11.161 24.838-24.884 24.838m0-71.277C21.439 11.73 3.64 40.123 3.64 51.077c0 12.307 10.03 22.318 22.36 22.318s22.36-10.011 22.36-22.318C48.36 40.123 30.56 11.732 26 4.638"/>
        <path d="M25.842 67.787C16.803 67.775 9.48 60.463 9.47 51.44a1.261 1.261 0 0 1 2.523 0c.008 7.632 6.202 13.819 13.849 13.83a1.26 1.26 0 0 1 0 2.516"/>
    </g>
</svg>
