<svg xmlns="http://www.w3.org/2000/svg" width="45" height="78" viewBox="0 0 45 78">
    <path fill="#FFF" fill-rule="nonzero" stroke="#FFF" stroke-width="1.89" d="M14.763 1c-4.055 0-8.11 2.426-8.11 7.277v43.912C3.242 54.692 1 58.717 1 63.255 1 70.836 7.183 77 14.789 77c7.605 0 13.788-6.164 13.788-13.745 0-4.55-2.251-8.589-5.677-11.091-.026-15.478.02-31.068-.026-43.887C22.874 3.426 18.82 1 14.764 1zm-.025 1.617c3.27 0 6.423 2.484 6.514 5.66.062 14.543.026 28.875.026 44.266.004.258.14.511.354.656a12.15 12.15 0 0 1 5.323 10.056c0 6.707-5.437 12.128-12.166 12.128-6.73 0-12.167-5.42-12.167-12.128 0-4.16 2.1-7.845 5.298-10.03a.822.822 0 0 0 .355-.657V8.277c0-3.234 3.244-5.66 6.463-5.66zM28.4 5.851c-.425.046-.769.474-.723.897.047.423.476.766.9.72h14.6c.429.008.823-.381.823-.808 0-.428-.394-.815-.823-.809H28.4zm0 8.085c-.425.046-.769.474-.723.897.047.424.476.767.9.72h6.49c.428.008.822-.381.822-.808 0-.428-.394-.815-.823-.809H28.4zm0 8.085c-.425.046-.769.474-.723.897.047.424.476.767.9.72h14.6c.429.008.823-.381.823-.808 0-.427-.394-.815-.823-.809H28.4zm-13.687 2.375c-.505.11-.582.557-.735.834v30.774c-3.65.397-6.49 3.51-6.49 7.251 0 4.01 3.279 7.277 7.3 7.277 4.023 0 7.3-3.268 7.3-7.277 0-3.733-2.85-6.844-6.488-7.251V25.23c-.148-.633-.56-.653-.887-.834zm13.687 5.71c-.425.046-.769.474-.723.897.047.424.476.767.9.72h6.49c.428.008.822-.38.822-.808 0-.427-.394-.815-.823-.809H28.4zm0 8.086c-.425.046-.769.473-.723.896.047.424.476.767.9.72h14.6c.429.009.823-.38.823-.808 0-.427-.394-.815-.823-.808H28.4zm0 8.085c-.425.046-.769.473-.723.897.047.423.476.766.9.72h6.49c.428.008.822-.382.822-.809 0-.427-.394-.814-.823-.808H28.4zM14.79 57.596a5.656 5.656 0 0 1 5.677 5.66 5.656 5.656 0 0 1-5.677 5.659 5.656 5.656 0 0 1-5.678-5.66 5.656 5.656 0 0 1 5.678-5.66z"/>
</svg>
