<svg xmlns="http://www.w3.org/2000/svg" width="73" height="68" viewBox="0 0 73 68">
    <path fill="#FFF" fill-rule="nonzero" d="M71.62 65.243h-5.83V11.027h4.598c.762 0 1.38-.617 1.38-1.378v-8.27C71.768.616 71.15 0 70.388 0H1.38C.618 0 0 .617 0 1.378v8.27c0 .762.618 1.379 1.38 1.379h4.598v54.216H1.637a1.379 1.379 0 1 0 0 2.757H71.62a1.379 1.379 0 1 0 0-2.757zM2.76 8.27V2.757h66.259V8.27H2.758zM63.03 65.243H8.773V40.975h25.75v3.97a4.172 4.172 0 0 0 1.38 8.109 4.172 4.172 0 1 0 1.38-8.11l-.001-3.97h25.75v24.27zm-27.138-17.8a1.416 1.416 0 1 1 0 2.832 1.416 1.416 0 0 1 0-2.831zm27.138-9.188H8.773V10.99h54.258v27.265z"/>
</svg>
