<svg xmlns="http://www.w3.org/2000/svg" width="123" height="124" viewBox="0 0 123 124">
    <g fill="#FFF" fill-rule="nonzero" stroke="#FFF" stroke-width="2.286">
        <path d="M61.513 92.798c-17.077 0-30.969-13.805-30.969-30.77 0-16.964 13.89-30.769 30.97-30.769 17.079 0 30.968 13.8 30.968 30.77 0 16.969-13.894 30.769-30.969 30.769m0-57.695c-14.967 0-27.1 12.055-27.1 26.926 0 14.87 12.133 26.925 27.1 26.925 14.967 0 27.1-12.055 27.1-26.925-.016-14.864-12.14-26.91-27.1-26.926M61.513 24.675a1.938 1.938 0 0 1-1.367-.561 1.912 1.912 0 0 1-.566-1.358V4.006c0-.686.368-1.32.967-1.663a1.944 1.944 0 0 1 1.933 0c.598.343.967.977.967 1.664v18.749c0 .51-.204.998-.567 1.358-.362.36-.854.561-1.367.56M61.513 121.974a1.94 1.94 0 0 1-1.367-.563 1.915 1.915 0 0 1-.566-1.358v-18.75c0-1.06.866-1.92 1.933-1.92 1.068 0 1.934.86 1.934 1.92v18.75c0 1.06-.866 1.92-1.934 1.92M89.465 36.178a1.915 1.915 0 0 1-1.365-.563 1.91 1.91 0 0 1 0-2.714l13.341-13.26a1.945 1.945 0 0 1 2.7.036c.742.737.758 1.927.036 2.683L90.83 35.626c-.36.362-.853.565-1.365.563M20.218 104.98a1.917 1.917 0 0 1-1.364-.565 1.912 1.912 0 0 1 0-2.716L32.19 88.442a1.944 1.944 0 0 1 1.889-.539 1.93 1.93 0 0 1 1.39 1.38 1.915 1.915 0 0 1-.543 1.877l-13.343 13.258c-.36.362-.852.565-1.365.564M119.914 63.952h-18.871a1.93 1.93 0 0 1-1.936-1.923 1.93 1.93 0 0 1 1.936-1.924h18.871a1.93 1.93 0 0 1 1.936 1.924 1.93 1.93 0 0 1-1.936 1.923M3.113 63.952a1.93 1.93 0 0 1-1.936-1.923 1.93 1.93 0 0 1 1.936-1.924H21.98a1.93 1.93 0 0 1 1.936 1.924 1.93 1.93 0 0 1-1.936 1.923H3.113zM102.806 104.98a1.93 1.93 0 0 1-1.365-.565L88.096 91.16a1.915 1.915 0 0 1-.543-1.876 1.93 1.93 0 0 1 1.39-1.38 1.944 1.944 0 0 1 1.889.538l13.341 13.261c.551.55.716 1.375.417 2.092a1.933 1.933 0 0 1-1.784 1.185M33.562 36.178a1.931 1.931 0 0 1-1.372-.552L18.845 22.371a1.914 1.914 0 0 1 .036-2.683 1.945 1.945 0 0 1 2.7-.035l13.341 13.26a1.91 1.91 0 0 1 0 2.713c-.36.362-.852.565-1.365.563"/>
    </g>
</svg>
