<svg xmlns="http://www.w3.org/2000/svg" width="88" height="95" viewBox="0 0 88 95">
    <path fill="#FFF" fill-rule="evenodd" d="M69.91 14.982c-.892-3.843-1.783-7.691-2.672-11.539-.271-1.173.352-2.278 1.503-2.654 1.075-.345 2.385.41 2.643 1.51.163.734.335 1.468.507 2.201 1.216 5.23 2.432 10.474 3.644 15.716.249 1.1-.344 2.386-1.504 2.654-.73.164-1.461.337-2.192.51-5.208 1.22-10.429 2.441-15.65 3.658-1.172.268-2.277-.353-2.642-1.51-.344-1.079.408-2.395 1.504-2.654.73-.164 1.461-.336 2.192-.509 3.883-.91 7.774-1.821 11.666-2.73a74.525 74.525 0 0 0-.086-.071c-.18-.147-.365-.29-.545-.44-.095-.074-.194-.16-.301-.238.056.03.374.277.064.052-1.47-1.113-2.999-2.14-4.597-3.055a35.688 35.688 0 0 0-2.342-1.242c-.43-.208-.86-.41-1.298-.605-.167-.073-.365-.185-.546-.237.593.186-.124-.043-.244-.095a42.276 42.276 0 0 0-5.02-1.674 41.91 41.91 0 0 0-2.599-.596c-.46-.082-.92-.168-1.383-.246-.215-.03-.439-.06-.654-.094-.098-.01-.197-.035-.292-.044.55.087.25.03.13.022a43.7 43.7 0 0 0-5.307-.337c-1.78 0-3.524.225-5.294.346.335-.022.292-.044-.009 0-.099.008-.197.034-.292.043-.193.03-.387.06-.58.095-.443.073-.872.15-1.31.237-.869.173-1.74.38-2.6.604a40.12 40.12 0 0 0-5.019 1.692c-.107.043-.223.086-.344.138.486-.225.155-.06.035-.009-.215.1-.417.186-.623.28-.387.169-.774.354-1.16.549-.795.388-1.577.81-2.342 1.25-1.582.903-3.18 1.908-4.59 3.073.43-.367.026-.009-.051.043-.082.065-.159.13-.245.194-.18.139-.365.29-.546.44-.343.29-.674.579-1.01.872a44.746 44.746 0 0 0-2.062 1.977 33.992 33.992 0 0 0-1.92 2.092c-.31.354-.61.72-.903 1.088-.064.082-.129.16-.193.246-.013.021-.335.431-.12.15a3.52 3.52 0 0 1-.065.087 5.375 5.375 0 0 0-.236.31 41.549 41.549 0 0 0-4.203 7.008c-.206.432-.4.863-.593 1.303-.043.113-.137.38.043-.095-.043.1-.077.186-.12.281-.082.203-.159.419-.245.626a41.665 41.665 0 0 0-2.178 7.68c-.073.462-.16.924-.224 1.39-.008.1-.034.198-.043.293-.026.216-.163.371.009-.052-.078.164-.056.423-.078.596a42.486 42.486 0 0 0-.266 5.329c.013.889.056 1.782.12 2.667.035.444.078.889.12 1.329.026.215.044.44.078.656.009.086.043.423.009.086-.03-.38.013.108.021.151.25 1.739.61 3.478 1.074 5.17.464 1.695.993 3.43 1.732 5.026-.258-.552.073.182.137.311.095.237.202.466.31.69.176.363.348.734.528 1.088.409.82.847 1.622 1.31 2.408.46.785.955 1.562 1.47 2.33.284.401.559.802.851 1.2.142.194.284.38.421.56.069.087.228.333-.051-.064.064.082.129.168.193.246a41.097 41.097 0 0 0 5.908 6.118c.353.302.718.592 1.083.885.314.25-.013-.03-.064-.052.073.017.18.13.245.181.18.143.378.285.558.423a39.394 39.394 0 0 0 4.65 2.956c.794.432 1.602.837 2.427 1.217.224.104.464.216.688.31.098.044.184.078.279.122.288.129-.499-.203-.034-.01.378.148.739.303 1.117.441a42.008 42.008 0 0 0 5.113 1.588c.86.203 1.732.388 2.612.54.43.077.873.142 1.31.206.508.078-.373-.051-.05-.008.098.013.197.026.292.034.227.035.442.056.666.078 1.761.181 3.536.259 5.306.216a41.935 41.935 0 0 0 2.656-.151c.442-.043.885-.087 1.323-.138.099-.013.198-.026.292-.035.387-.043-.077.022-.129.022.202 0 .439-.06.654-.095a41.213 41.213 0 0 0 5.207-1.144 37.034 37.034 0 0 0 3.816-1.307c.202-.087.417-.173.623-.26.12-.042.335-.18-.095.044.086-.043.194-.078.28-.12a43.137 43.137 0 0 0 4.834-2.512c.786-.475 1.56-.98 2.311-1.51.387-.272.761-.54 1.126-.82.103-.074.202-.16.31-.238.236-.185-.301.233-.065.052.18-.147.365-.289.546-.44a41.96 41.96 0 0 0 6.36-6.42c.11-.143.227-.286.334-.424.198-.25-.202.268-.008.009.159-.216.318-.431.481-.647a41.83 41.83 0 0 0 4.632-8.168c.142-.324-.185.487.021-.044l.13-.323c.081-.216.158-.432.244-.648.366-.966.696-1.95.989-2.943a44.503 44.503 0 0 0 1.31-6.032c.086-.582-.056.475.009-.108.008-.112.034-.228.043-.336.034-.23.056-.458.077-.682.052-.505.095-1.023.129-1.532a43.06 43.06 0 0 0 .086-3.072l.001-.001c-.013-1.204.988-2.102 2.105-2.132 1.17-.052 2.14 1.027 2.149 2.158a45.583 45.583 0 0 1-.451 6.537c-1.204 8.782-5.144 17.058-11.108 23.582A43.73 43.73 0 0 1 56.277 92.54c-7.231 2.123-15.004 2.322-22.343.604-7.555-1.756-14.58-5.622-20.187-10.981A44.111 44.111 0 0 1 1.823 62.303C-.223 55.012-.34 47.214 1.445 39.857c1.83-7.586 5.748-14.61 11.162-20.185 5.427-5.597 12.354-9.71 19.873-11.746a44.067 44.067 0 0 1 22.421-.13c5.414 1.395 10.52 3.863 15.01 7.186z"/>
</svg>
