<?xml version="1.0" encoding="UTF-8" standalone="no"?>
<svg width="47px" height="70px" viewBox="0 0 47 70" version="1.1" xmlns="http://www.w3.org/2000/svg" xmlns:xlink="http://www.w3.org/1999/xlink">
    <!-- Generator: sketchtool 50.2 (55047) - http://www.bohemiancoding.com/sketch -->
    <title>1F5226C5-3106-4F68-BE0A-E712EB81F8DB</title>
    <desc>Created with sketchtool.</desc>
    <defs></defs>
    <g id="Darwin-Digital-Display-UI" stroke="none" stroke-width="1" fill="none" fill-rule="evenodd">
        <g id="Icons" transform="translate(-560.000000, -541.000000)" fill="#000000">
            <g id="Icon/TapToStart" transform="translate(560.000000, 541.000000)">
                <g id="TapStart">
                    <path d="M8.078,26.059 C7.971,26.059 7.862,26.044 7.755,26.013 C7.461,25.927 7.217,25.733 7.067,25.465 C5.953,23.413 5.366,21.104 5.366,18.785 C5.366,11.386 11.04,5.367 18.016,5.367 C24.991,5.367 30.665,11.386 30.665,18.785 C30.665,21.105 30.078,23.414 28.966,25.461 C28.817,25.729 28.567,25.928 28.278,26.013 C27.982,26.099 27.671,26.064 27.4,25.914 C27.13,25.764 26.935,25.518 26.85,25.223 C26.765,24.932 26.802,24.612 26.951,24.347 C27.887,22.622 28.363,20.75 28.363,18.785 C28.363,12.656 23.721,7.67 18.016,7.67 C12.31,7.67 7.668,12.656 7.668,18.785 C7.668,20.75 8.144,22.623 9.083,24.351 C9.229,24.613 9.265,24.932 9.181,25.224 C9.094,25.522 8.899,25.767 8.631,25.914 C8.46,26.01 8.271,26.059 8.078,26.059 Z M2.839,27.61 C2.701,27.61 2.563,27.586 2.431,27.538 C2.137,27.424 1.901,27.198 1.779,26.914 C0.6,24.366 3.63797881e-12,21.628 3.63797881e-12,18.785 C3.63797881e-12,8.427 8.081,-1.8189894e-12 18.016,-1.8189894e-12 C27.95,-1.8189894e-12 36.031,8.427 36.031,18.785 C36.031,21.629 35.431,24.367 34.247,26.924 C34.13,27.198 33.894,27.425 33.604,27.536 C33.312,27.645 32.987,27.633 32.71,27.505 C32.423,27.369 32.21,27.133 32.107,26.84 C32.003,26.542 32.024,26.224 32.165,25.943 C33.201,23.701 33.729,21.288 33.729,18.785 C33.729,9.697 26.68,2.303 18.016,2.303 C9.351,2.303 2.303,9.697 2.303,18.785 C2.303,21.289 2.831,23.702 3.872,25.955 C4.008,26.225 4.028,26.543 3.926,26.838 C3.821,27.133 3.608,27.369 3.326,27.503 C3.174,27.574 3.007,27.61 2.839,27.61 Z M17.043,67.467 L36.71,67.467 C38.215,66.246 39.806,63.904 41.092,61.011 C42.479,57.893 43.541,54.252 44.082,50.758 C44.645,47.118 44.589,43.824 43.924,41.483 C43.239,39.065 42.054,37.821 40.194,37.566 C39.686,37.57 39.211,37.608 38.836,37.682 C38.384,37.772 38.047,37.947 37.967,38.02 C37.66,38.31 37.195,38.378 36.755,38.192 C36.32,38.008 36.035,37.615 36.029,37.191 C36.029,35.896 35.501,35.357 35.041,35.031 C34.507,34.653 33.745,34.508 33.38,34.503 C32.573,34.517 32.007,34.785 31.32,36.16 C31.098,36.635 30.539,36.911 30.027,36.794 C29.51,36.674 29.116,36.168 29.129,35.642 C29.129,34.347 28.625,33.814 28.186,33.496 C27.651,33.108 26.915,32.97 26.448,32.97 C25.378,32.97 24.074,33.73 23.657,34.597 C23.441,35.062 22.872,35.346 22.366,35.237 C21.865,35.13 21.477,34.653 21.464,34.128 L21.464,18.018 C21.464,16.085 19.95,14.57 18.016,14.57 C16.083,14.57 14.568,16.084 14.568,18.018 L14.568,45.618 C14.578,46.138 14.184,46.642 13.671,46.76 C13.158,46.876 12.599,46.601 12.373,46.116 L9.335,40.016 C8.541,38.588 7.936,37.654 6.302,36.86 C5.698,36.702 4.991,36.851 4.074,37.375 C3.212,37.851 2.675,38.455 2.377,39.28 C2.159,40.062 2.359,41.252 2.996,42.891 C6.961,52.626 12.204,61.798 17.043,67.467 Z M16.483,69.769 C16.152,69.769 15.837,69.626 15.618,69.374 C10.529,63.553 5.005,53.975 0.843,43.751 C0.014,41.732 -0.191,40.159 0.178,38.651 C0.568,37.352 1.522,36.21 2.872,35.416 C4.36,34.554 5.704,34.305 6.978,34.658 C9.363,35.3 10.956,38.106 11.388,38.951 L12.265,40.705 L12.265,18.018 C12.265,14.847 14.845,12.267 18.016,12.267 C18.031,12.267 18.046,12.267 18.061,12.267 C20.819,12.267 23.699,14.405 23.766,18.011 L23.766,31.418 C24.618,30.93 25.548,30.667 26.448,30.667 C27.101,30.667 28.372,30.794 29.549,31.651 C30.046,32.011 30.466,32.558 30.803,33.281 C31.605,32.57 32.432,32.215 33.317,32.2 C33.819,32.186 35.121,32.27 36.373,33.158 C37.084,33.663 37.639,34.522 37.961,35.605 C38.67,35.319 39.436,35.256 40.346,35.267 C43.17,35.595 45.217,37.582 46.15,40.865 C46.899,43.5 46.965,46.852 46.352,51.111 C45.845,54.65 44.72,58.498 43.185,61.947 C41.582,65.548 39.792,68.098 37.864,69.526 C37.688,69.667 37.449,69.756 37.201,69.769 L16.483,69.769 Z"></path>
                </g>
            </g>
        </g>
    </g>
</svg>