<svg xmlns="http://www.w3.org/2000/svg" width="61" height="51" viewBox="0 0 61 51">
    <path fill="#FFF" fill-rule="evenodd" d="M8.829 51C3.966 51 0 47.062 0 42.234v-25.5C0 11.906 3.966 7.97 8.829 7.97h8.653L21.044.896A1.602 1.602 0 0 1 22.474 0h16.052a1.602 1.602 0 0 1 1.43.896l3.562 7.073h8.653c4.863 0 8.829 3.937 8.829 8.765v25.5C61 47.062 57.034 51 52.171 51H8.829zm0-3.188h43.342c3.142 0 5.619-2.459 5.619-5.578v-25.5c0-3.119-2.477-5.578-5.619-5.578H42.54c-.605 0-1.157-.339-1.43-.871l-3.587-7.098H23.477l-3.587 7.098a1.607 1.607 0 0 1-1.43.871H8.83c-3.142 0-5.618 2.46-5.618 5.578v25.5c0 3.12 2.476 5.578 5.618 5.578zM30.5 42.234c-7.073 0-12.842-5.727-12.842-12.75 0-7.022 5.769-12.75 12.842-12.75s12.842 5.728 12.842 12.75c0 7.023-5.769 12.75-12.842 12.75zm0-3.187c5.34 0 9.632-4.262 9.632-9.563 0-5.3-4.292-9.562-9.632-9.562s-9.631 4.261-9.631 9.562c0 5.301 4.292 9.563 9.631 9.563z"/>
</svg>
