<svg xmlns="http://www.w3.org/2000/svg" width="100" height="100" viewBox="0 0 100 100">
    <g fill="none" fill-rule="evenodd" opacity=".8">
        <rect width="100" height="100" fill="#FFF" rx="50"/>
        <path fill="#000" d="M35.698 34.003a1.882 1.882 0 1 0-1.115 3.233l12.736 12.783-12.736 12.753a1.893 1.893 0 0 0 0 2.674 1.887 1.887 0 0 0 2.67 0L50.02 52.663l12.737 12.783a1.887 1.887 0 0 0 2.67 0 1.893 1.893 0 0 0 0-2.674L52.661 50.019l12.766-12.784a1.881 1.881 0 0 0-1.379-3.232c-.488.01-.95.213-1.291.558L50.02 47.314 37.253 34.561a1.882 1.882 0 0 0-1.35-.558 1.914 1.914 0 0 0-.205 0z"/>
    </g>
</svg>
