<svg xmlns="http://www.w3.org/2000/svg" width="57" height="57" viewBox="0 0 57 57">
    <path fill="#FFF" fill-rule="evenodd" d="M28.5 57A28.5 28.5 0 1 0 0 28.5a28.53 28.53 0 0 0 8.358 20.141A28.528 28.528 0 0 0 28.499 57L28.5 57zM8.447 12.363a28.054 28.054 0 0 0 5.088 3.982 37.956 37.956 0 0 0-1.853 10.784H2.77a25.64 25.64 0 0 1 5.677-14.766zM54.223 27.13H45.31a37.946 37.946 0 0 0-1.864-10.839 28.233 28.233 0 0 0 5.054-3.998 25.638 25.638 0 0 1 5.723 14.837zM48.505 44.7a28.216 28.216 0 0 0-5.053-3.995 38.02 38.02 0 0 0 1.866-10.833h8.913A25.617 25.617 0 0 1 48.505 44.7zM40.06 15.063a25.575 25.575 0 0 1-10.18 2.742V3.285a23.705 23.705 0 0 1 10.18 11.778zM29.872 20.52a28.43 28.43 0 0 0 11.14-2.871 35.483 35.483 0 0 1 1.564 9.48H29.872v-6.61zm12.704 9.351a35.483 35.483 0 0 1-1.564 9.48 28.429 28.429 0 0 0-11.14-2.87v-6.61h12.704zM29.872 53.717V39.224a25.61 25.61 0 0 1 10.187 2.742 23.7 23.7 0 0 1-10.187 11.751zM27.13 36.481a28.67 28.67 0 0 0-11.155 2.831 35.496 35.496 0 0 1-1.55-9.44h12.704v6.61zm0 2.743v14.493a23.714 23.714 0 0 1-10.201-11.812 25.927 25.927 0 0 1 10.2-2.68v-.001zm15.324 4.113a25.23 25.23 0 0 1 4.207 3.428 25.775 25.775 0 0 1-11.524 6.623 27.33 27.33 0 0 0 7.316-10.072v.021zm0-29.637a27.323 27.323 0 0 0-7.317-10.086 25.762 25.762 0 0 1 11.532 6.644 25.534 25.534 0 0 1-4.216 3.428v.014zM27.13 3.285V17.78a25.92 25.92 0 0 1-10.201-2.673 23.706 23.706 0 0 1 10.2-11.82zm0 17.236v6.61H14.425a35.57 35.57 0 0 1 1.55-9.448A28.665 28.665 0 0 0 27.13 20.52zm-15.447 9.352a38.081 38.081 0 0 0 1.845 10.777 28.161 28.161 0 0 0-5.088 3.985 25.627 25.627 0 0 1-5.661-14.762h8.904zm-1.411 16.81a25.404 25.404 0 0 1 4.25-3.427c1.63 3.899 4.145 7.37 7.343 10.133a25.762 25.762 0 0 1-11.593-6.706zM21.865 3.616a27.324 27.324 0 0 0-7.335 10.12 25.43 25.43 0 0 1-4.25-3.428 25.75 25.75 0 0 1 11.585-6.692z"/>
</svg>
