<svg xmlns="http://www.w3.org/2000/svg" width="48" height="53" viewBox="0 0 48 53">
    <path fill="#FFF" fill-rule="evenodd" d="M24 0c1.368 0 2.671.435 3.863 1.16a4.08 4.08 0 0 1 2.052-.571c2.273 0 4.14 1.859 4.14 4.122a4.123 4.123 0 0 1-.98 2.669c.312.616.608 1.255.887 1.932 1.463-.193 2.865-.283 4.177-.24 3.964.13 7.3 1.404 8.908 4.178 1.978 3.409.72 7.86-2.329 12.183-.25.354-.52.713-.794 1.067.277.357.542.71.794 1.067 3.05 4.323 4.307 8.774 2.329 12.183-.21.361-.46.69-.72.994.094.343.147.697.147 1.067 0 2.264-1.867 4.122-4.14 4.122a4.166 4.166 0 0 1-3.585-2.042c-1.481.096-3.082.018-4.769-.203-.173.421-.35.817-.536 1.215C31.206 49.693 27.953 53 24 53c-3.953 0-7.206-3.308-9.444-8.097a29.606 29.606 0 0 1-.536-1.215 25.584 25.584 0 0 1-3.918.24 4.156 4.156 0 0 1-3.845 2.594c-2.273 0-4.14-1.858-4.14-4.122 0-.356.06-.7.148-1.03a6.96 6.96 0 0 1-1.312-1.62c-1.978-3.409-.72-7.86 2.329-12.183.251-.356.517-.71.794-1.067a28.975 28.975 0 0 1-.794-1.067C.232 21.11-1.025 16.659.953 13.25c1.73-2.986 5.44-4.224 9.832-4.178 1.03.012 2.119.092 3.235.24.17-.414.353-.822.536-1.215C16.794 3.307 20.047 0 24 0zm0 2.356c-2.578 0-5.255 2.36-7.3 6.735-.097.207-.183.428-.277.644 2.416.502 4.969 1.289 7.577 2.356 2.604-1.07 5.145-1.852 7.559-2.356-.16-.365-.312-.724-.48-1.067-.373.11-.758.166-1.165.166-2.273 0-4.14-1.859-4.14-4.123 0-.644.157-1.24.425-1.785-.73-.37-1.458-.57-2.2-.57H24zm5.915.588c-.994 0-1.775.778-1.775 1.767 0 .99.781 1.767 1.775 1.767.993 0 1.774-.778 1.774-1.767 0-.989-.781-1.767-1.774-1.767zm8.15 8.484c-1.007-.032-2.1.032-3.253.166.77 2.337 1.363 4.925 1.737 7.71 2.228 1.714 4.18 3.527 5.822 5.356.146-.196.29-.396.425-.59 2.784-3.947 3.507-7.418 2.218-9.642-1.046-1.804-3.444-2.885-6.949-3zm-27.316 0c-3.937-.041-6.636 1.056-7.763 3-1.289 2.224-.566 5.695 2.218 9.643.136.193.28.393.425.588 1.643-1.828 3.595-3.641 5.822-5.355.374-2.78.97-5.376 1.737-7.71a22.965 22.965 0 0 0-2.44-.166zm21.679.534c-1.703.338-3.5.855-5.36 1.509a55.457 55.457 0 0 1 3.437 1.803 56.695 56.695 0 0 1 3.309 2.061 38.932 38.932 0 0 0-1.386-5.373zm-16.874.018c-.555 1.633-1.01 3.434-1.368 5.355a55.861 55.861 0 0 1 6.746-3.883 39.489 39.489 0 0 0-5.378-1.472zm8.428 2.668a51.58 51.58 0 0 0-5.305 2.669 52.74 52.74 0 0 0-4.971 3.257c-.22 1.9-.352 3.876-.352 5.925 0 2.045.134 4.028.352 5.926A52.64 52.64 0 0 0 24 38.332a52.62 52.62 0 0 0 10.294-5.907 51.337 51.337 0 0 0 .018-11.832 52.416 52.416 0 0 0-4.99-3.276 52.05 52.05 0 0 0-5.34-2.669zm.018 7.14c2.599 0 4.731 2.124 4.731 4.712 0 2.587-2.132 4.71-4.731 4.71-2.599 0-4.731-2.123-4.731-4.71 0-2.588 2.132-4.711 4.731-4.711zm12.882.829c.087 1.27.13 2.56.13 3.883 0 1.313-.043 2.601-.13 3.864a38.958 38.958 0 0 0 3.973-3.864 39.057 39.057 0 0 0-3.973-3.883zm-25.764.018A38.958 38.958 0 0 0 7.145 26.5a38.958 38.958 0 0 0 3.973 3.864 55.737 55.737 0 0 1-.13-3.864c0-1.314.043-2.602.13-3.865zM24 24.144a2.342 2.342 0 0 0-2.366 2.356A2.342 2.342 0 0 0 24 28.855a2.342 2.342 0 0 0 2.366-2.355A2.342 2.342 0 0 0 24 24.144zm18.39 4.196c-1.645 1.83-3.609 3.641-5.84 5.355a43.14 43.14 0 0 1-1.738 7.692c1.213.143 2.35.207 3.4.166.142-2.14 1.941-3.865 4.122-3.865.994 0 1.908.368 2.625.957.016-.025.041-.048.055-.074 1.29-2.224.566-5.714-2.218-9.66-.134-.192-.263-.38-.406-.571zm-36.78 0c-.143.19-.272.38-.406.57-2.784 3.948-3.507 7.437-2.218 9.661.152.265.347.507.554.737a4.137 4.137 0 0 1 2.717-1.031c1.994 0 3.667 1.433 4.048 3.313.903.011 1.869-.065 2.883-.185-.767-2.334-1.365-4.93-1.737-7.71-2.232-1.714-4.196-3.524-5.84-5.356zm28.204 7.324a56.535 56.535 0 0 1-3.308 2.043 57.144 57.144 0 0 1-3.438 1.822 39.67 39.67 0 0 0 5.378 1.49 38.88 38.88 0 0 0 1.368-5.355zm-19.628 0c.358 1.928.813 3.738 1.368 5.374 1.712-.34 3.527-.83 5.396-1.49a57.934 57.934 0 0 1-3.456-1.841 56.503 56.503 0 0 1-3.308-2.043zm28.148 4.38c-.993 0-1.774.778-1.774 1.767 0 .989.78 1.766 1.774 1.766.993 0 1.774-.777 1.774-1.766 0-.99-.78-1.767-1.774-1.767zm-36.077.589c-.993 0-1.774.778-1.774 1.767 0 .989.781 1.766 1.774 1.766.994 0 1.775-.777 1.775-1.766 0-.99-.781-1.767-1.775-1.767zm17.725.276c-2.604 1.067-5.145 1.873-7.56 2.374.093.214.18.419.278.626 2.045 4.375 4.722 6.735 7.3 6.735 2.579 0 5.256-2.36 7.3-6.735.098-.207.186-.412.278-.626-2.423-.504-4.98-1.3-7.596-2.374z"/>
</svg>
